HIERARCHY
ROOT Hips
{
	OFFSET 0.000000 0.000000 0.000000
	CHANNELS 6 Xposition Yposition Zposition Zrotation Yrotation Xrotation 
	JOINT LHipJoint
	{
		OFFSET 0.000000 0.000000 0.000000
		CHANNELS 3 Zrotation Yrotation Xrotation
		JOINT LeftUpLeg
		{
			OFFSET 1.363060 -1.794630 0.839290
			CHANNELS 3 Zrotation Yrotation Xrotation
			JOINT LeftLeg
			{
				OFFSET 2.448110 -6.726130 0.000000
				CHANNELS 3 Zrotation Yrotation Xrotation
				JOINT LeftFoot
				{
					OFFSET 2.562200 -7.039590 0.000000
					CHANNELS 3 Zrotation Yrotation Xrotation
					JOINT LeftToeBase
					{
						OFFSET 0.157640 -0.433110 2.322550
						CHANNELS 3 Zrotation Yrotation Xrotation
						End Site
						{
							OFFSET 0.000000 0.000000 0.000000
						}
					}
				}
			}
		}
	}
	JOINT RHipJoint
	{
		OFFSET 0.000000 0.000000 0.000000
		CHANNELS 3 Zrotation Yrotation Xrotation
		JOINT RightUpLeg
		{
			OFFSET -1.305520 -1.794630 0.839290
			CHANNELS 3 Zrotation Yrotation Xrotation
			JOINT RightLeg
			{
				OFFSET -2.542530 -6.985550 0.000000
				CHANNELS 3 Zrotation Yrotation Xrotation
				JOINT RightFoot
				{
					OFFSET -2.568260 -7.056230 0.000000
					CHANNELS 3 Zrotation Yrotation Xrotation
					JOINT RightToeBase
					{
						OFFSET -0.164730 -0.452590 2.363150
						CHANNELS 3 Zrotation Yrotation Xrotation
						End Site
						{
							OFFSET 0.000000 0.000000 0.000000
						}
					}
				}
			}
		}
	}
	JOINT LowerBack
	{
		OFFSET 0.000000 0.000000 0.000000
		CHANNELS 3 Zrotation Yrotation Xrotation
		JOINT Spine
		{
			OFFSET 0.028270 2.035590 -0.193380
			CHANNELS 3 Zrotation Yrotation Xrotation
			JOINT Spine1
			{
				OFFSET 0.056720 2.048850 -0.042750
				CHANNELS 3 Zrotation Yrotation Xrotation
				JOINT Neck
				{
					OFFSET 0.000000 0.000000 0.000000
					CHANNELS 3 Zrotation Yrotation Xrotation
					JOINT Neck1
					{
						OFFSET -0.054170 1.746240 0.172020
						CHANNELS 3 Zrotation Yrotation Xrotation
						JOINT Head
						{
							OFFSET 0.104070 1.761360 -0.123970
							CHANNELS 3 Zrotation Yrotation Xrotation
							End Site
							{
								OFFSET 0.000000 0.000000 0.000000
							}
						}
					}
				}
				JOINT LeftShoulder
				{
					OFFSET 0.000000 0.000000 0.000000
					CHANNELS 3 Zrotation Yrotation Xrotation
					JOINT LeftArm
					{
						OFFSET 3.362410 1.200890 -0.311210
						CHANNELS 3 Zrotation Yrotation Xrotation
						JOINT LeftForeArm
						{
							OFFSET 4.983000 -0.000000 -0.000000
							CHANNELS 3 Zrotation Yrotation Xrotation
							JOINT LeftHand
							{
								OFFSET 3.483560 -0.000000 -0.000000
								CHANNELS 3 Zrotation Yrotation Xrotation
								JOINT LeftFingerBase
								{
									OFFSET 0.000000 0.000000 0.000000
									CHANNELS 3 Zrotation Yrotation Xrotation
									JOINT LeftHandIndex1
									{
										OFFSET 0.715260 -0.000000 -0.000000
										CHANNELS 3 Zrotation Yrotation Xrotation
										End Site
										{
											OFFSET 0.000000 0.000000 0.000000
										}
									}
								}
								JOINT LThumb
								{
									OFFSET 0.000000 0.000000 0.000000
									CHANNELS 3 Zrotation Yrotation Xrotation
									End Site
									{
										OFFSET 0.000000 0.000000 0.000000
									}
								}
							}
						}
					}
				}
				JOINT RightShoulder
				{
					OFFSET 0.000000 0.000000 0.000000
					CHANNELS 3 Zrotation Yrotation Xrotation
					JOINT RightArm
					{
						OFFSET -3.136600 1.374050 -0.404650
						CHANNELS 3 Zrotation Yrotation Xrotation
						JOINT RightForeArm
						{
							OFFSET -5.241900 -0.000000 -0.000000
							CHANNELS 3 Zrotation Yrotation Xrotation
							JOINT RightHand
							{
								OFFSET -3.444170 -0.000000 -0.000000
								CHANNELS 3 Zrotation Yrotation Xrotation
								JOINT RightFingerBase
								{
									OFFSET 0.000000 0.000000 0.000000
									CHANNELS 3 Zrotation Yrotation Xrotation
									JOINT RightHandIndex1
									{
										OFFSET -0.622530 -0.000000 -0.000000
										CHANNELS 3 Zrotation Yrotation Xrotation
										End Site
										{
											OFFSET 0.000000 0.000000 0.000000
										}
									}
								}
								JOINT RThumb
								{
									OFFSET 0.000000 0.000000 0.000000
									CHANNELS 3 Zrotation Yrotation Xrotation
									End Site
									{
										OFFSET 0.000000 0.000000 0.000000
									}
								}
							}
						}
					}
				}
			}
		}
	}
}
MOTION
Frames: 11
Frame Time: 0.008333
-1.374181 18.384124 -9.584517 -101.018740 81.158335 -108.197289 13.277967 1.371237 -2.030392 -30.667659 -5.514682 1.742621 8.215823 11.107684 39.947376 -2.698408 -20.608813 -36.748512 0.217200 3.000500 8.280200 -11.425507 -3.287676 -1.844009 46.881679 -3.247601 1.524700 -7.504472 -11.443946 36.045949 -1.883679 7.625458 -38.036013 -0.395800 -4.039500 11.187700 -1.198572 0.488644 3.691845 17.536629 -0.917213 16.158409 -3.373905 0.757320 -11.058948 -9.911771 -2.485585 -27.694153 1.922528 -0.635746 35.427671 2.646600 -0.710700 12.497700 -0.371483 0.592526 1.684249 -94.958613 4.345552 22.386019 20.645251 -30.634504 -3.353235 3.161589 4.406420 3.093049 22.119467 23.955533 6.637700 -7.125000 0.000000 0.000000 -9.028100 50.276400 -1.182500 -2.385865 -0.949824 0.730791 90.178420 -5.715862 18.811617 -19.405101 26.378507 -2.802382 -1.706942 0.208424 -9.762879 -20.678872 13.693518 -4.542200 7.125000 0.000000 0.000000 5.720700 -15.969200 3.946000 
-1.371104 18.372089 -9.563885 -101.265863 80.725659 -108.505931 13.241272 1.429047 -1.847200 -30.121855 -6.208992 1.029159 8.435391 11.468104 41.465037 -2.774416 -20.513001 -36.411730 0.311200 3.586300 9.915600 -11.335439 -3.272317 -1.903838 47.322313 -3.295564 1.757302 -7.414813 -11.374930 35.640763 -1.850768 7.601240 -37.784694 -0.472900 -4.410600 12.234900 -1.128421 0.494531 3.804592 18.300442 -0.969550 16.206759 -3.578924 0.752722 -11.015570 -10.402898 -2.613244 -27.690904 2.122074 -0.697176 35.357239 2.746300 -0.746400 12.528700 -0.386034 0.605478 1.680650 -95.030492 4.160140 22.250017 20.776277 -30.906462 -3.408568 3.129592 4.413179 2.621043 22.163214 23.824579 6.614900 -7.125000 0.000000 0.000000 -8.954300 50.165800 -1.148300 -2.518663 -0.972073 0.721874 90.214892 -5.532593 18.175860 -19.323626 26.281424 -2.766819 -1.729813 0.301014 -9.228410 -20.931843 14.420950 -4.823900 7.125000 0.000000 0.000000 5.574500 -15.264600 3.929100 
-1.370199 18.362316 -9.550493 -100.940572 80.115428 -108.218105 13.165772 1.530595 -1.575006 -29.300701 -7.055596 -0.000138 8.710811 11.922963 43.434880 -2.896380 -20.546160 -36.083637 0.432200 4.219000 11.693600 -11.237604 -3.232989 -1.998557 47.883893 -3.482796 2.036971 -7.284745 -11.266004 35.081287 -1.756330 7.801174 -37.426753 -0.518800 -4.616400 12.817700 -0.661285 0.503190 3.858183 18.858369 -1.000488 16.337562 -3.925964 0.722951 -10.978680 -10.504744 -2.680621 -27.680884 2.049793 -0.722364 35.273312 2.721000 -0.773800 12.544600 -0.414954 0.605789 1.676401 -94.930587 4.052970 22.380696 21.026147 -31.295346 -3.496976 3.050393 4.450946 2.329300 21.842152 23.930540 6.544900 -7.125000 0.000000 0.000000 -9.235500 50.207600 -1.194400 -2.604224 -0.993180 0.720061 90.195798 -5.551559 18.237941 -19.511754 26.545909 -2.828429 -1.721264 0.298800 -9.232275 -20.953038 14.493547 -4.857600 7.125000 0.000000 0.000000 5.556900 -15.181800 3.926500 
-1.367032 18.354805 -9.531399 -100.113904 79.271751 -107.523007 13.070134 1.625407 -1.339616 -28.112316 -7.683968 -1.023546 8.993468 12.369247 45.415872 -2.968683 -20.496809 -35.862740 0.396800 4.044500 11.202000 -11.079117 -3.173801 -2.078666 48.666285 -3.801559 2.406241 -7.126037 -11.163939 34.479764 -1.744549 7.757054 -37.186823 -0.451900 -4.312700 11.958000 -0.137514 0.547354 3.946460 19.618423 -1.013343 16.524116 -4.306741 0.721517 -10.897235 -10.618235 -2.783893 -27.734604 2.112672 -0.830110 35.187116 2.718300 -0.817200 12.592900 -0.427478 0.621853 1.662125 -94.866996 3.828992 22.414831 21.182559 -31.580933 -3.559687 3.012077 4.440158 2.468963 21.600300 23.906379 6.466800 -7.125000 0.000000 0.000000 -9.414700 50.152800 -1.205100 -2.730283 -1.007800 0.726705 90.140633 -5.574236 18.806191 -19.752833 26.902024 -2.926644 -1.726595 0.203469 -9.791985 -21.113344 13.843737 -4.702100 7.125000 0.000000 0.000000 5.440000 -15.766400 3.774500 
-1.365584 18.346389 -9.509048 -99.096781 78.191597 -106.544166 12.994721 1.743656 -1.149225 -26.600743 -8.184069 -2.318457 9.326587 12.857664 47.608366 -3.066302 -20.366356 -35.445886 0.377700 3.947000 10.927500 -10.846577 -3.125521 -2.199106 49.587970 -4.280154 2.666550 -6.940622 -11.063275 33.842244 -1.712491 7.779782 -36.906004 -0.452400 -4.315200 11.965000 0.344467 0.671559 4.231010 21.066019 -0.868898 16.115702 -4.856770 0.771463 -10.712366 -11.157184 -2.983707 -27.314732 2.324615 -1.024172 34.867925 2.793300 -0.908400 12.517600 -0.477183 0.607025 1.686739 -95.047386 3.684027 22.297882 21.237082 -31.763057 -3.598643 3.006879 4.394720 2.615735 21.577915 23.655895 6.395200 -7.125000 0.000000 0.000000 -9.352700 49.930100 -1.145500 -2.968915 -0.984607 0.772248 89.993610 -5.589775 18.769892 -19.734211 26.828274 -2.917469 -1.750339 0.186335 -9.637292 -21.371635 13.632103 -4.696100 7.125000 0.000000 0.000000 5.275600 -15.945400 3.639000 
-1.364498 18.346751 -9.493755 -99.477718 77.563257 -106.924920 12.854508 1.881901 -0.844272 -25.555888 -8.836941 -3.818082 9.722284 13.370655 49.915171 -3.217494 -20.128015 -34.553020 0.402100 4.071200 11.277200 -10.711242 -3.106797 -2.373678 50.042472 -4.829011 2.914486 -6.783966 -10.955827 33.239707 -1.653358 7.956296 -36.722391 -0.568600 -4.829300 13.422500 0.712418 0.771844 4.440056 21.912204 -0.715701 15.805354 -5.259942 0.810864 -10.615329 -11.682132 -3.221185 -26.748288 2.479226 -1.290598 34.515758 2.837900 -1.041100 12.386300 -0.516805 0.570503 1.708861 -95.101616 3.658415 22.680028 21.367001 -32.008341 -3.665247 3.048668 4.395028 2.032488 22.192772 23.539471 6.559100 -7.125000 0.000000 0.000000 -8.815600 49.926700 -1.078100 -3.097799 -0.979687 0.789960 89.978212 -5.592253 17.972004 -19.682642 26.698436 -2.872199 -1.713017 0.255674 -8.803066 -21.012799 14.009962 -4.728100 7.125000 0.000000 0.000000 5.504500 -15.624000 3.836600 
-1.361512 18.352633 -9.478825 -100.514570 77.260504 -107.950818 12.654750 2.058849 -0.430923 -24.732460 -9.456782 -5.561389 10.153975 13.869423 52.260582 -3.389461 -19.892699 -33.475366 0.334100 3.714600 10.275100 -10.646956 -3.107970 -2.520555 50.256277 -5.202657 3.164682 -6.674148 -10.864593 32.736659 -1.630776 7.946455 -36.561158 -0.630600 -5.081100 14.139900 0.837891 0.723562 4.365827 22.089904 -0.824414 16.108289 -5.270041 0.788479 -10.602110 -11.556096 -3.279386 -26.715732 2.177671 -1.338340 34.336397 2.726200 -1.103300 12.368600 -0.516735 0.585040 1.682863 -95.009035 3.450866 23.140296 21.521344 -32.268586 -3.735405 3.129108 4.438695 1.028518 23.224477 23.647230 6.921800 -7.125000 0.000000 0.000000 -8.005800 50.198600 -1.031600 -3.163683 -1.025112 0.753025 90.071499 -5.308917 17.391204 -19.640193 26.689018 -2.843925 -1.629972 0.280141 -8.296882 -20.186430 14.021764 -4.534200 7.125000 0.000000 0.000000 6.015800 -15.690700 4.188200 
-1.358526 18.354624 -9.463079 -100.756888 76.799939 -108.119115 12.445992 2.263885 -0.012926 -23.618982 -10.052744 -7.469282 10.616085 14.354815 54.652024 -3.610622 -19.697506 -32.214250 0.239200 3.147700 8.690100 -10.544397 -3.109101 -2.632839 50.627300 -5.454349 3.280121 -6.585408 -10.813287 32.390918 -1.592754 7.899330 -36.261942 -0.584600 -4.895500 13.610800 1.027193 0.656285 4.203466 22.333679 -0.975188 16.479612 -5.254362 0.763079 -10.535455 -11.252641 -3.218665 -26.919734 1.931775 -1.259700 34.211008 2.634600 -1.086000 12.405600 -0.505092 0.628866 1.648028 -95.042573 3.096805 22.991344 21.602808 -32.464497 -3.779734 3.224277 4.451220 0.617538 24.102290 23.777649 7.254000 -7.125000 0.000000 0.000000 -7.317700 50.478900 -0.992700 -3.256191 -1.068378 0.722903 90.020992 -4.967666 17.381020 -19.627533 26.736363 -2.840990 -1.574939 0.252688 -8.228005 -19.640507 13.682148 -4.307200 7.125000 0.000000 0.000000 6.349600 -16.058300 4.372700 
-1.355811 18.356072 -9.446701 -101.252588 76.452001 -108.426506 12.245599 2.476492 0.437264 -22.655560 -10.941432 -9.482367 11.135075 14.834637 57.080776 -3.784279 -19.248592 -30.673759 0.079100 1.814300 4.992700 -10.461629 -3.135444 -2.759792 50.911912 -5.620254 3.279136 -6.518151 -10.773852 32.116986 -1.566527 7.872977 -36.078094 -0.591500 -4.923700 13.691200 1.103057 0.529517 3.979832 22.566941 -1.173187 16.721924 -5.203307 0.703435 -10.449832 -11.262131 -3.128177 -27.068416 2.151429 -1.163846 34.138033 2.718600 -1.011600 12.440300 -0.481854 0.667445 1.623373 -95.183139 2.799705 22.384526 21.681308 -32.654284 -3.816799 3.249217 4.441265 0.601361 24.332465 23.800343 7.343600 -7.125000 0.000000 0.000000 -7.128400 50.550300 -0.979300 -3.323946 -1.102900 0.696622 89.905752 -4.620452 17.663845 -19.553367 26.683892 -2.827346 -1.591204 0.245530 -8.112650 -19.848465 13.525943 -4.308400 7.125000 0.000000 0.000000 6.215800 -16.194300 4.261100 
-1.357712 18.356253 -9.431498 -102.439686 76.387624 -109.467297 12.028371 2.683423 0.913867 -22.005022 -11.866973 -11.534120 11.700179 15.284222 59.491294 -3.919737 -18.630952 -28.820587 0.006400 0.515400 1.416300 -10.425700 -3.171195 -2.916306 50.940238 -5.814906 3.363668 -6.458215 -10.714625 31.773809 -1.591288 7.741577 -36.081784 -0.626400 -5.064300 14.092100 1.022488 0.383119 3.849621 22.570538 -1.390089 16.988818 -5.069082 0.628761 -10.478067 -11.333836 -3.077633 -27.014894 2.247500 -1.104061 33.907136 2.769000 -0.979100 12.382500 -0.463678 0.689693 1.598109 -95.255580 2.629627 21.960196 21.850281 -32.926678 -3.876762 3.169246 4.449439 0.226338 23.997304 23.668534 7.192300 -7.125000 0.000000 0.000000 -7.369900 50.372900 -0.980600 -3.343706 -1.146607 0.657059 89.802190 -4.381753 18.214983 -19.504839 26.656421 -2.826366 -1.637902 0.258273 -8.061219 -20.383049 13.616547 -4.457600 7.125000 0.000000 0.000000 5.880300 -16.068600 4.044500 
-1.355811 18.360958 -9.414215 -103.342678 76.342006 -110.462347 11.770493 2.855747 1.348476 -21.257097 -12.525782 -13.397896 12.280305 15.688447 61.877597 -4.114806 -18.182875 -26.730811 0.000500 0.148700 0.408600 -10.364791 -3.148583 -3.092926 50.945227 -6.088586 3.779852 -6.375133 -10.635306 31.305653 -1.629627 7.424566 -35.919694 -0.541000 -4.712500 13.090200 0.989385 0.434492 3.910743 22.583992 -1.375358 17.287641 -4.990868 0.676841 -10.530765 -11.501378 -3.218910 -26.779561 2.195902 -1.280307 33.585170 2.743200 -1.084000 12.287800 -0.464830 0.684574 1.576462 -95.329911 2.526238 22.014148 22.009869 -33.192900 -3.945858 3.161521 4.434405 -0.028831 24.143041 23.528185 7.202100 -7.125000 0.000000 0.000000 -7.206200 50.278100 -0.941800 -3.358857 -1.178451 0.625486 89.727624 -4.383546 18.325958 -19.564659 26.738087 -2.844724 -1.656189 0.311975 -7.886164 -20.629870 14.155565 -4.681300 7.125000 0.000000 0.000000 5.732100 -15.532800 4.008100 
